<svg width="139" height="93" viewBox="0 0 139 93" fill="none" xmlns="http://www.w3.org/2000/svg">
<path opacity="0.2" d="M112.706 47.0706C128.138 47.0706 138.537 56.2037 138.537 69.736C138.537 81.9135 126.585 92.0586 110.396 92.0586C92.6637 92.0586 79.5612 79.8811 79.5612 61.2804C79.5612 19.0022 115.792 2.09096 138.537 0.0585938V18.6593C123.115 21.0262 105.776 34.2157 105 48.7684C105.776 48.4339 108.853 47.0706 112.706 47.0706ZM34.0809 47.0706C49.4933 47.0706 59.9026 56.2037 59.9026 69.736C59.9026 81.9135 47.9501 92.0586 31.7612 92.0586C14.0291 92.0586 0.926636 79.8811 0.926636 61.2804C0.926636 19.0022 37.1575 2.09096 59.9026 0.0585938V18.6593C44.4804 21.0262 27.1414 34.2157 26.3649 48.7684C27.1414 48.4339 30.218 47.0706 34.0809 47.0706Z" fill="#C6C6C6"/>
</svg>
