<svg width="25" height="25" viewBox="0 0 25 25" fill="none" xmlns="http://www.w3.org/2000/svg">
<g clip-path="url(#clip0_91_1331)">
<path d="M12.4915 0.25293C7.44366 0.25293 3.4082 4.28839 3.4082 9.33626C3.4082 11.082 3.9286 12.4303 4.8322 13.7975L11.5359 23.9689C11.7393 24.2765 12.0894 24.4752 12.4915 24.4752C12.8937 24.4752 13.2485 24.2717 13.4472 23.9689L20.1509 13.7975C21.0545 12.4303 21.5749 11.082 21.5749 9.33626C21.5749 4.28839 17.5394 0.25293 12.4915 0.25293ZM12.4915 14.3794C9.70503 14.3794 7.44366 12.118 7.44366 9.3268C7.44366 6.53557 9.70503 4.2742 12.4915 4.2742C15.278 4.2742 17.5394 6.53557 17.5394 9.3268C17.5394 12.118 15.278 14.3794 12.4915 14.3794ZM12.4915 6.30849C10.8168 6.30849 9.46376 7.66152 9.46376 9.33626C9.46376 11.011 10.8168 12.364 12.4915 12.364C14.1663 12.364 15.5193 11.011 15.5193 9.33626C15.5193 7.66152 14.1663 6.30849 12.4915 6.30849Z" fill="#525FE1"/>
</g>
<defs>
<clipPath id="clip0_91_1331">
<rect width="24.2222" height="24.2222" fill="white" transform="translate(0.380859 0.25293)"/>
</clipPath>
</defs>
</svg>
