<svg width="125" height="125" viewBox="0 0 125 125" fill="none" xmlns="http://www.w3.org/2000/svg">
<path fill-rule="evenodd" clip-rule="evenodd" d="M103.126 53.0209C101.511 36.4584 91.7193 10.4167 61.4589 10.4167C31.1985 10.4167 21.4068 36.4584 19.7922 53.0209C14.1282 55.1705 10.3922 60.6086 10.4171 66.6667V73.9584C10.4171 82.0126 16.9464 88.5417 25.0006 88.5417C33.0547 88.5417 39.5839 82.0126 39.5839 73.9584V66.6667C39.5577 60.7394 35.9589 55.4131 30.4693 53.1772C31.511 43.5938 36.6152 20.8334 61.4589 20.8334C86.3027 20.8334 91.3547 43.5938 92.3964 53.1772C86.918 55.4179 83.3373 60.7478 83.3339 66.6667V73.9584C83.3565 79.5573 86.5714 84.6526 91.6152 87.0834C89.4277 91.198 83.8547 96.7709 70.1568 98.4376C67.4187 94.2797 62.1211 92.6406 57.5133 94.5255C52.9055 96.4105 50.2755 101.292 51.2364 106.177C52.1973 111.062 56.4804 114.583 61.4589 114.583C65.393 114.562 68.9791 112.325 70.7297 108.802C93.0735 106.25 100.209 94.7397 102.448 87.9688C108.507 86.0062 112.582 80.3268 112.501 73.9584V66.6667C112.526 60.6086 108.79 55.1705 103.126 53.0209ZM29.1672 73.9584C29.1672 76.2596 27.3018 78.1251 25.0006 78.1251C22.6994 78.1251 20.8339 76.2596 20.8339 73.9584V66.6667C20.8339 65.1781 21.6281 63.8026 22.9172 63.0583C24.2064 62.314 25.7947 62.314 27.0839 63.0583C28.3731 63.8026 29.1672 65.1781 29.1672 66.6667V73.9584ZM93.7506 66.6667C93.7506 64.3656 95.6161 62.5001 97.9172 62.5001C100.218 62.5001 102.084 64.3656 102.084 66.6667V73.9584C102.084 76.2596 100.218 78.1251 97.9172 78.1251C95.6161 78.1251 93.7506 76.2596 93.7506 73.9584V66.6667Z" fill="white"/>
</svg>
