<svg width="19" height="25" viewBox="0 0 19 25" fill="none" xmlns="http://www.w3.org/2000/svg">
<path d="M9.222 0C4.17413 0 0.138672 4.03546 0.138672 9.08333C0.138672 10.829 0.659071 12.1773 1.56267 13.5446L8.26636 23.716C8.46979 24.0235 8.81988 24.2222 9.222 24.2222C9.62413 24.2222 9.97895 24.0188 10.1776 23.716L16.8813 13.5446C17.7849 12.1773 18.3053 10.829 18.3053 9.08333C18.3053 4.03546 14.2699 0 9.222 0ZM9.222 14.1265C6.4355 14.1265 4.17413 11.8651 4.17413 9.07387C4.17413 6.28264 6.4355 4.02127 9.222 4.02127C12.0085 4.02127 14.2699 6.28264 14.2699 9.07387C14.2699 11.8651 12.0085 14.1265 9.222 14.1265ZM9.222 6.05556C7.54727 6.05556 6.19423 7.40859 6.19423 9.08333C6.19423 10.7581 7.54727 12.1111 9.222 12.1111C10.8967 12.1111 12.2498 10.7581 12.2498 9.08333C12.2498 7.40859 10.8967 6.05556 9.222 6.05556Z" fill="black" fill-opacity="0.5"/>
</svg>
