<svg width="24" height="24" viewBox="0 0 24 24" fill="none" xmlns="http://www.w3.org/2000/svg">
<path d="M14.974 20.895C13.1043 21.5243 11.0831 21.5443 9.20139 20.952C7.31964 20.3597 5.67428 19.1858 4.50205 17.5991C3.32981 16.0124 2.69115 14.0947 2.67794 12.122C2.66474 10.1492 3.27767 8.22319 4.42856 6.62093C5.57944 5.01867 7.20894 3.8228 9.0826 3.20539C10.9563 2.58798 12.9775 2.58086 14.8554 3.18505C16.7334 3.78925 18.3713 4.97361 19.5334 6.56773C20.6956 8.16185 21.322 10.0835 21.3227 12.0563C21.2926 12.8125 21.201 13.565 21.049 14.3063" stroke="black" stroke-opacity="0.5" stroke-width="2"/>
<path d="M14.1975 19.1625C13.5268 19.9245 12.7916 20.6271 12 21.2625" stroke="black" stroke-opacity="0.5" stroke-width="2"/>
<path d="M12 2.625C14.5164 4.82359 16.0735 7.91894 16.3387 11.25C16.3932 11.8547 16.4045 12.4625 16.3725 13.0687" stroke="black" stroke-opacity="0.5" stroke-width="2"/>
<path d="M12.0009 2.625C10.6356 3.81505 9.53872 5.28165 8.78297 6.92762C8.02722 8.57359 7.62985 10.3614 7.61719 12.1725C7.61719 18.2475 10.3472 20.0475 11.9897 21.2625" stroke="black" stroke-opacity="0.5" stroke-width="2"/>
<path d="M3.88867 7.46252H20.1562" stroke="black" stroke-opacity="0.5" stroke-width="2"/>
<path d="M12 2.62122V21.2625" stroke="black" stroke-opacity="0.5" stroke-width="2"/>
<path d="M4.14453 17.0549H13.8908" stroke="black" stroke-opacity="0.5" stroke-width="2"/>
<path d="M2.67773 12.1725L21.3227 11.9437" stroke="black" stroke-opacity="0.5" stroke-width="2"/>
<path d="M20.0886 21.3751L21.7499 19.7101L18.7499 16.7101L20.4561 15.6188C20.481 15.6041 20.5008 15.5822 20.513 15.556C20.5251 15.5298 20.529 15.5005 20.5241 15.4721C20.5192 15.4436 20.5058 15.4173 20.4856 15.3966C20.4655 15.3759 20.4395 15.3619 20.4111 15.3563L14.6774 14.0138C14.6537 14.009 14.6292 14.0101 14.6061 14.0171C14.5829 14.024 14.5619 14.0366 14.5448 14.0537C14.5277 14.0708 14.5151 14.0918 14.5082 14.115C14.5012 14.1381 14.5001 14.1626 14.5049 14.1863L15.7499 20.0288C15.7559 20.0572 15.7702 20.0832 15.791 20.1034C15.8118 20.1237 15.8381 20.1373 15.8667 20.1425C15.8952 20.1477 15.9247 20.1444 15.9513 20.1328C15.9779 20.1212 16.0005 20.102 16.0161 20.0776L17.0886 18.3751L20.0886 21.3751Z" stroke="black" stroke-opacity="0.5" stroke-width="2"/>
</svg>
