<svg width="24" height="25" viewBox="0 0 24 25" fill="none" xmlns="http://www.w3.org/2000/svg">
<circle cx="12" cy="12.0581" r="12" fill="black"/>
<path d="M7 6.55811C7 5.89506 7.26339 5.25918 7.73223 4.79034C8.20107 4.3215 8.83696 4.05811 9.5 4.05811H12V9.05811H9.5C8.83696 9.05811 8.20107 8.79471 7.73223 8.32587C7.26339 7.85703 7 7.22115 7 6.55811Z" stroke="white" stroke-linecap="round" stroke-linejoin="round"/>
<path d="M12 4.05811H14.5C14.8283 4.05811 15.1534 4.12277 15.4567 4.24841C15.76 4.37404 16.0356 4.55819 16.2678 4.79034C16.4999 5.02248 16.6841 5.29808 16.8097 5.6014C16.9353 5.90471 17 6.2298 17 6.55811C17 6.88641 16.9353 7.2115 16.8097 7.51481C16.6841 7.81813 16.4999 8.09373 16.2678 8.32587C16.0356 8.55802 15.76 8.74217 15.4567 8.8678C15.1534 8.99344 14.8283 9.05811 14.5 9.05811H12V4.05811Z" stroke="white" stroke-linecap="round" stroke-linejoin="round"/>
<path d="M12 11.5581C12 11.2298 12.0647 10.9047 12.1903 10.6014C12.3159 10.2981 12.5001 10.0225 12.7322 9.79034C12.9644 9.55819 13.24 9.37404 13.5433 9.24841C13.8466 9.12277 14.1717 9.05811 14.5 9.05811C14.8283 9.05811 15.1534 9.12277 15.4567 9.24841C15.76 9.37404 16.0356 9.55819 16.2678 9.79034C16.4999 10.0225 16.6841 10.2981 16.8097 10.6014C16.9353 10.9047 17 11.2298 17 11.5581C17 11.8864 16.9353 12.2115 16.8097 12.5148C16.6841 12.8181 16.4999 13.0937 16.2678 13.3259C16.0356 13.558 15.76 13.7422 15.4567 13.8678C15.1534 13.9934 14.8283 14.0581 14.5 14.0581C14.1717 14.0581 13.8466 13.9934 13.5433 13.8678C13.24 13.7422 12.9644 13.558 12.7322 13.3259C12.5001 13.0937 12.3159 12.8181 12.1903 12.5148C12.0647 12.2115 12 11.8864 12 11.5581V11.5581Z" stroke="white" stroke-linecap="round" stroke-linejoin="round"/>
<path d="M7 16.5581C7 15.8951 7.26339 15.2592 7.73223 14.7903C8.20107 14.3215 8.83696 14.0581 9.5 14.0581H12V16.5581C12 17.2211 11.7366 17.857 11.2678 18.3259C10.7989 18.7947 10.163 19.0581 9.5 19.0581C8.83696 19.0581 8.20107 18.7947 7.73223 18.3259C7.26339 17.857 7 17.2211 7 16.5581Z" stroke="white" stroke-linecap="round" stroke-linejoin="round"/>
<path d="M7 11.5581C7 10.8951 7.26339 10.2592 7.73223 9.79034C8.20107 9.3215 8.83696 9.05811 9.5 9.05811H12V14.0581H9.5C8.83696 14.0581 8.20107 13.7947 7.73223 13.3259C7.26339 12.857 7 12.2211 7 11.5581Z" stroke="white" stroke-linecap="round" stroke-linejoin="round"/>
</svg>
