<svg width="24" height="25" viewBox="0 0 24 25" fill="none" xmlns="http://www.w3.org/2000/svg">
<circle cx="12" cy="12.0581" r="12" fill="black"/>
<path d="M15.8027 4.05811C18.1595 4.05827 20.0703 5.96892 20.0703 8.32568V15.8608C20.0702 18.2175 18.1594 20.1283 15.8027 20.1284H8.26758C5.91081 20.1284 4.00016 18.2176 4 15.8608V8.32568C4 5.96882 5.91071 4.05811 8.26758 4.05811H15.8027ZM8.26758 5.05811C6.463 5.05811 5 6.5211 5 8.32568V15.8608C5.00016 17.6653 6.4631 19.1284 8.26758 19.1284H15.8027C17.6071 19.1283 19.0702 17.6652 19.0703 15.8608V8.32568C19.0703 6.5212 17.6072 5.05827 15.8027 5.05811H8.26758ZM10.4492 8.94092C11.1052 8.60057 11.852 8.47609 12.583 8.58447C13.3288 8.69507 14.0196 9.04258 14.5527 9.57568C15.0857 10.1088 15.4334 10.7997 15.5439 11.5454C15.6522 12.2764 15.5269 13.0233 15.1865 13.6792C14.8461 14.335 14.3075 14.8665 13.6475 15.1987C12.9874 15.531 12.2394 15.6471 11.5098 15.5298C10.7801 15.4124 10.1056 15.0679 9.58301 14.5454C9.0604 14.0228 8.71607 13.3483 8.59863 12.6187C8.48124 11.8891 8.59658 11.1411 8.92871 10.481C9.26101 9.82075 9.79316 9.28133 10.4492 8.94092ZM12.4365 9.57373C11.9136 9.49619 11.3794 9.58522 10.9102 9.82861C10.4408 10.0722 10.06 10.4579 9.82227 10.9302C9.58458 11.4024 9.502 11.9375 9.58594 12.4595C9.66995 12.9815 9.91615 13.4645 10.29 13.8384C10.6638 14.2121 11.1461 14.4584 11.668 14.5425C12.19 14.6265 12.7259 14.5439 13.1982 14.3062C13.6704 14.0684 14.0553 13.6875 14.2988 13.2183C14.5423 12.749 14.6322 12.2148 14.5547 11.6919C14.4756 11.1584 14.227 10.6641 13.8457 10.2827C13.4643 9.90135 12.97 9.65287 12.4365 9.57373ZM16.1875 7.44873C16.4635 7.44881 16.6874 7.67269 16.6875 7.94873C16.6875 8.22482 16.4636 8.44865 16.1875 8.44873H16.1787C15.9028 8.44848 15.6787 8.22472 15.6787 7.94873C15.6788 7.6728 15.9028 7.44898 16.1787 7.44873H16.1875Z" fill="white"/>
</svg>
