<svg width="24" height="24" viewBox="0 0 24 24" fill="none" xmlns="http://www.w3.org/2000/svg">
<path d="M16.4028 1.8955C16.6242 1.8955 16.8037 1.71602 16.8037 1.49463C16.8037 1.27323 16.6242 1.09375 16.4028 1.09375C16.1814 1.09375 16.002 1.27323 16.002 1.49463C16.002 1.71602 16.1814 1.8955 16.4028 1.8955Z" fill="white"/>
<path d="M21.6528 7.1455C21.8742 7.1455 22.0537 6.96602 22.0537 6.74463C22.0537 6.52323 21.8742 6.34375 21.6528 6.34375C21.4314 6.34375 21.252 6.52323 21.252 6.74463C21.252 6.96602 21.4314 7.1455 21.6528 7.1455Z" fill="white"/>
<path d="M23.1528 4.1455C23.3742 4.1455 23.5537 3.96602 23.5537 3.74463C23.5537 3.52323 23.3742 3.34375 23.1528 3.34375C22.9314 3.34375 22.752 3.52323 22.752 3.74463C22.752 3.96602 22.9314 4.1455 23.1528 4.1455Z" fill="white"/>
<path d="M20.8125 3.375C21.3303 3.375 21.75 2.95527 21.75 2.4375C21.75 1.91973 21.3303 1.5 20.8125 1.5C20.2947 1.5 19.875 1.91973 19.875 2.4375C19.875 2.95527 20.2947 3.375 20.8125 3.375Z" stroke="white" stroke-linecap="round" stroke-linejoin="round"/>
<path d="M11.25 23.25C17.049 23.25 21.75 18.549 21.75 12.75C21.75 6.95101 17.049 2.25 11.25 2.25C5.45101 2.25 0.75 6.95101 0.75 12.75C0.75 18.549 5.45101 23.25 11.25 23.25Z" stroke="white" stroke-width="1.5" stroke-linecap="round" stroke-linejoin="round"/>
<path d="M7.2168 20.232C7.29429 20.232 7.37007 20.2092 7.43467 20.1664L8.09392 19.725C8.15853 19.6822 8.23431 19.6594 8.3118 19.6594H8.65755C8.70909 19.6594 8.76013 19.6492 8.80774 19.6295C8.85536 19.6097 8.89862 19.5808 8.93504 19.5444C8.97147 19.5079 9.00036 19.4646 9.02005 19.417C9.03974 19.3693 9.04985 19.3183 9.0498 19.2667V19.1962C9.0498 19.0921 9.09117 18.9923 9.1648 18.9186C9.23843 18.845 9.33829 18.8036 9.44242 18.8036H11.4588C11.5103 18.8036 11.5614 18.8137 11.609 18.8334C11.6566 18.8531 11.6998 18.882 11.7363 18.9184L12.4784 19.6609V19.9462H13.0293C13.1168 19.9462 13.2018 19.9755 13.2708 20.0294C13.3398 20.0833 13.3888 20.1587 13.4099 20.2436L13.5472 21.0776C13.5683 21.1626 13.6173 21.238 13.6863 21.2918C13.7553 21.3457 13.8403 21.375 13.9278 21.375H14.5218C14.5947 21.375 14.6662 21.3547 14.7282 21.3163C14.7902 21.278 14.8403 21.2231 14.8728 21.1579L14.9414 21.0206C14.974 20.9554 15.0241 20.9005 15.0861 20.8622C15.1481 20.8238 15.2195 20.8035 15.2924 20.8035H15.6794C15.82 20.8035 15.9502 20.4424 16.0203 20.3201L17.0185 18.573C17.0394 18.5363 17.0542 18.4966 17.0624 18.4553L17.3069 17.2335C17.3255 17.1405 17.3097 17.0439 17.2627 16.9616L16.2674 15.2194C16.2194 15.1356 16.1423 15.0725 16.0507 15.042L15.574 14.883C15.5029 14.8593 15.4401 14.8157 15.3929 14.7575C15.3457 14.6992 15.3162 14.6286 15.3078 14.5541L15.2163 13.7291C15.2091 13.664 15.1857 13.6017 15.1483 13.5479C15.1108 13.4941 15.0604 13.4506 15.0018 13.4213L14.8383 13.3395C14.7732 13.3069 14.7184 13.2567 14.6801 13.1948C14.6418 13.1328 14.6216 13.0614 14.6215 12.9885V12.375H14.3358L13.6657 13.4918C13.6149 13.5767 13.5339 13.6394 13.439 13.6672C13.344 13.695 13.242 13.6859 13.1534 13.6417L12.64 13.3853C12.5555 13.3429 12.4891 13.2715 12.453 13.1842C12.4168 13.0969 12.4133 12.9994 12.4432 12.9097L12.4492 12.8925C12.469 12.8334 12.4745 12.7705 12.4652 12.7089C12.4558 12.6474 12.432 12.5889 12.3956 12.5383C12.3593 12.4877 12.3114 12.4466 12.2559 12.4182C12.2005 12.3898 12.1391 12.375 12.0768 12.375H11.1498C11.0769 12.375 11.0054 12.3953 10.9434 12.4336C10.8814 12.472 10.8313 12.5269 10.7988 12.5921L10.4767 13.2375C10.4366 13.3173 10.3705 13.3811 10.2893 13.4184C10.2082 13.4557 10.1167 13.4642 10.03 13.4426L9.45217 13.2983C9.37571 13.2791 9.29524 13.2834 9.22126 13.3106C9.14728 13.3378 9.08321 13.3867 9.03742 13.4509L7.82092 15.1537C7.78376 15.206 7.7343 15.2482 7.67692 15.2767L5.82967 16.2C5.73694 16.2465 5.66641 16.3279 5.63352 16.4263C5.60063 16.5247 5.60805 16.6321 5.65417 16.725L6.8523 19.1213C6.8879 19.1927 6.90098 19.2732 6.8898 19.3522L6.8283 19.7831C6.82017 19.8389 6.82414 19.8957 6.83993 19.9498C6.85573 20.0038 6.88299 20.0539 6.91985 20.0964C6.95671 20.139 7.00231 20.1732 7.05355 20.1966C7.1048 20.22 7.16047 20.2321 7.2168 20.232Z" stroke="white" stroke-linecap="round" stroke-linejoin="round"/>
<path d="M1.81836 8.39444L2.25073 10.1236L4.12573 10.4986L5.62573 11.9986H7.87573V10.8736L6.00073 10.4986L4.12573 8.99856V6.74856L6.37573 7.49856L7.50073 6.37356L6.28948 3.64844" stroke="white" stroke-linecap="round" stroke-linejoin="round"/>
<path d="M10.5137 10.9638L12.0568 10.8678L13.4867 10.4141" stroke="white" stroke-linecap="round" stroke-linejoin="round"/>
<path d="M7.875 7.5L7.5 7.875" stroke="white" stroke-linecap="round" stroke-linejoin="round"/>
<path d="M12.375 21.75L12.75 22.125" stroke="white" stroke-linecap="round" stroke-linejoin="round"/>
<path d="M16.875 13.125L16.5 12L15 11.25L14.625 10.125L17.25 10.875L17.625 12.75L16.875 13.125Z" stroke="white" stroke-linecap="round" stroke-linejoin="round"/>
<path d="M7.5 9.375L8.25 9.75" stroke="white" stroke-linecap="round" stroke-linejoin="round"/>
<path d="M9.75 9.375L10.125 9" stroke="white" stroke-linecap="round" stroke-linejoin="round"/>
</svg>
