<svg width="25" height="25" viewBox="0 0 25 25" fill="none" xmlns="http://www.w3.org/2000/svg">
<path d="M11.053 22.3171C10.1948 21.8008 9.60537 21.1355 9.34658 20.3913C9.18133 19.9161 9.24167 19.4695 9.5404 18.9594C9.70892 18.6715 10.4196 17.9568 10.829 17.6637C10.9987 17.542 11.1333 17.4258 11.128 17.4052C11.1228 17.3846 10.978 17.2818 10.8067 17.1744C10.207 16.8023 9.64335 16.3254 9.34204 15.9348C9.2157 15.772 9.06719 15.4476 9.01314 15.2181C8.86005 14.5687 9.39045 13.4766 10.0954 12.9894C10.1494 12.9516 10.1856 12.9156 10.1758 12.9071C10.1656 12.9071 9.95917 12.8522 9.71595 12.8042C8.38545 12.5346 6.95809 12.1163 6.38858 11.8291C5.63951 11.4515 5.17984 10.9459 5.18591 10.5066C5.19105 10.1663 5.52026 9.73873 5.95766 9.50559C6.52448 9.20353 7.35208 9.07119 8.95069 9.02696C10.0388 8.99781 10.3614 9.00982 10.6523 9.12467C10.8785 9.20867 10.9582 9.33296 10.9326 9.55941C10.9074 9.78313 10.8058 9.92199 10.5888 10.0295C10.4323 10.1066 10.3546 10.1135 9.74456 10.11C8.61217 10.11 7.48269 10.2129 7.08222 10.3728C6.94868 10.426 6.92845 10.4483 6.9677 10.4963C7.09833 10.654 8.1597 11.076 9.11293 11.3502C9.86351 11.566 11.6677 12.0086 11.6932 11.9831C11.7035 11.9659 11.7 11.177 11.6846 10.2163L11.6551 8.46999L11.3591 8.4477C11.1452 8.43056 10.9855 8.38941 10.7834 8.29684L10.5038 8.16827L10.3112 8.26427C10.1434 8.34827 10.0615 8.36027 9.67377 8.36027C9.24375 8.36027 9.21925 8.36027 8.93711 8.21627L8.64529 8.07056L8.39699 8.17513C8.17592 8.2677 8.09567 8.2797 7.6654 8.2797C7.20045 8.2797 7.17198 8.2797 6.91413 8.1477L6.64614 8.0157L6.39234 8.10656C6.18186 8.18199 6.05624 8.19741 5.65612 8.19741C5.12049 8.19724 4.91279 8.14084 4.5285 7.88764C4.33593 7.76079 4.31505 7.75736 3.88722 7.75221C3.38228 7.75221 3.06945 7.6665 2.74262 7.45616C2.52602 7.3173 2.13201 6.91376 2.04102 6.7377L1.98462 6.62799H2.47364C3.64451 6.61084 4.8255 6.16839 6.09844 5.2557C6.62723 4.8765 6.94755 4.60616 7.66028 3.93724C8.01071 3.60844 8.38158 3.28016 8.48442 3.20781C9.03243 2.82227 9.38528 2.9733 9.95276 3.8361C10.1366 4.1157 10.3646 4.41433 10.4594 4.49987C10.7037 4.72016 11.0206 4.85456 11.3511 4.87821C11.6104 4.89707 11.6263 4.89536 11.6263 4.81307C11.6263 4.76164 11.5831 4.70679 11.5138 4.67079C11.33 4.5765 11.0735 4.30187 10.9616 4.0809C10.5884 3.34444 10.9037 2.45781 11.6665 2.09901C11.8939 1.99273 11.9723 1.97559 12.2696 1.97559C12.5669 1.97559 12.6452 1.99273 12.8726 2.09901C13.341 2.3193 13.6469 2.72799 13.7141 3.22324C13.7513 3.49701 13.7004 3.83679 13.5909 4.05741C13.4942 4.25096 13.1839 4.58627 13.0233 4.67079C12.9561 4.70679 12.9127 4.76164 12.9127 4.81307C12.9127 4.89364 12.9282 4.89707 13.1945 4.87821C13.5342 4.85421 13.9034 4.68741 14.127 4.4577C14.209 4.3737 14.426 4.07919 14.6095 3.8037C15.0168 3.19187 15.2208 3.02113 15.5446 3.02113C15.8235 3.02113 16.0422 3.15484 16.5492 3.63467C17.298 4.3437 17.7799 4.76439 18.232 5.10347C19.5885 6.1209 20.8392 6.61787 22.0662 6.62696H22.556L22.4988 6.73839C22.407 6.91564 22.0138 7.31884 21.7963 7.45839C21.4695 7.66804 21.1567 7.74896 20.6518 7.75427C20.2239 7.75427 20.2031 7.77141 20.0105 7.8897C19.6262 8.14221 19.4185 8.1993 18.8828 8.19964C18.4807 8.19982 18.3575 8.1825 18.1425 8.10707L17.8847 8.0145L17.622 8.14821C17.3678 8.27679 17.3438 8.28193 16.8748 8.28193C16.4432 8.28193 16.3632 8.26479 16.142 8.17736L15.8937 8.07279L15.6019 8.2185C15.3197 8.35907 15.2952 8.3625 14.8652 8.3625C14.4775 8.3625 14.3956 8.34536 14.2278 8.2665L14.0352 8.1705L13.7555 8.29907C13.5536 8.39164 13.3937 8.4345 13.1803 8.44993L12.8847 8.47222L12.8584 9.07633C12.8447 9.40856 12.8322 10.193 12.8322 10.8198C12.8322 11.7786 12.8408 11.9591 12.8895 11.9591C13.0088 11.9591 15.3276 11.3553 15.8239 11.195C16.7203 10.9055 17.501 10.5376 17.4374 10.4347C17.3992 10.373 16.987 10.2702 16.5309 10.2074C16.2589 10.1697 15.6381 10.1371 15.0233 10.1251C14.0477 10.108 13.966 10.1011 13.7971 10.0171C13.669 9.9537 13.5882 9.87656 13.5205 9.75347C13.4355 9.59747 13.43 9.56164 13.4713 9.42399C13.5728 9.0849 13.8218 9.01684 14.941 9.02199C17.1623 9.03913 18.2239 9.23696 18.8161 9.76942C19.0416 9.97204 19.2247 10.3086 19.2241 10.5187C19.2236 10.6977 19.0649 11.028 18.882 11.2305C18.3487 11.8207 16.9262 12.3582 14.7118 12.8059C14.452 12.8591 14.2394 12.9105 14.2394 12.9225C14.2394 12.9396 14.3371 13.0202 14.4566 13.1136C14.8445 13.4166 15.1606 13.9007 15.3259 14.445C15.6249 15.4293 15.091 16.2482 13.5016 17.2435L13.226 17.416L13.4163 17.5463C14.354 18.1914 15.0075 18.9923 15.1274 19.6432C15.2892 20.5219 14.4937 21.6782 13.2394 22.3871L12.9851 22.5311L13.0668 22.3922C13.7366 21.257 14.0281 20.5199 13.9898 20.058C13.9672 19.7846 13.7782 19.392 13.5202 19.0821C13.2983 18.8157 12.7936 18.3748 12.7548 18.4137C12.7428 18.4308 12.7222 19.0818 12.7106 19.8705C12.6872 21.449 12.6835 21.4725 12.4409 21.5877C12.2654 21.6717 12.0732 21.6391 11.9478 21.5054C11.8213 21.37 11.7935 21.018 11.7899 19.5054C11.7883 18.8476 11.7762 18.3093 11.7626 18.3093C11.7489 18.3093 11.6234 18.4002 11.4833 18.5121C11.098 18.8186 10.7182 19.2508 10.5712 19.5496C10.4524 19.7911 10.4404 19.8492 10.4414 20.178C10.4422 20.4705 10.4632 20.5963 10.5499 20.8288C10.7051 21.2447 11.0021 21.8265 11.3521 22.3999C11.396 22.4719 11.4257 22.5302 11.4181 22.5302C11.4113 22.5302 11.2466 22.4359 11.0537 22.3192L11.053 22.3171ZM11.7258 13.6535C11.7121 13.5815 11.6908 13.5232 11.677 13.5232C11.6632 13.5232 11.504 13.5952 11.3236 13.6826C10.6887 13.9898 10.3941 14.3719 10.3508 14.9442C10.3299 15.2207 10.3371 15.262 10.4343 15.4279C10.5625 15.6467 10.7474 15.8004 11.304 16.151L11.7261 16.4169L11.7381 15.101C11.745 14.3772 11.7388 13.7253 11.7258 13.6535ZM13.333 15.9969C13.8067 15.684 14.0321 15.4356 14.0427 15.2145C14.0705 14.6387 13.9265 14.2698 13.5617 13.9818C13.3619 13.824 12.8398 13.5378 12.8125 13.5708C12.8073 13.5708 12.7917 14.2043 12.7785 14.9637C12.7571 16.2014 12.761 16.3418 12.8169 16.3202C12.8512 16.3031 13.0835 16.1608 13.333 15.9969Z" fill="#525FE1"/>
</svg>
